<?xml version="1.0" encoding="UTF-8"?>
<svg xmlns="http://www.w3.org/2000/svg" xmlns:xlink="http://www.w3.org/1999/xlink" width="50px" height="50px" viewBox="0 0 50 50" version="1.1">
<g id="surface1">
<path style=" stroke:none;fill-rule:evenodd;fill:rgb(72.941178%,15.294118%,50.196081%);fill-opacity:1;" d="M 19.175781 11.371094 C 19.296875 11.394531 19.5 11.394531 19.625 11.371094 C 19.75 11.347656 19.648438 11.328125 19.398438 11.328125 C 19.152344 11.328125 19.050781 11.347656 19.175781 11.371094 M 17.046875 19.550781 C 17.046875 22.90625 17.058594 24.261719 17.074219 22.566406 C 17.089844 20.871094 17.089844 18.128906 17.074219 16.46875 C 17.058594 14.808594 17.046875 16.195312 17.046875 19.550781 M 34.925781 16.070312 C 35.078125 16.09375 35.304688 16.09375 35.425781 16.070312 C 35.550781 16.046875 35.425781 16.027344 35.148438 16.027344 C 34.875 16.03125 34.773438 16.046875 34.925781 16.070312 M 26.125 17.570312 C 26.222656 17.59375 26.378906 17.59375 26.476562 17.570312 C 26.570312 17.542969 26.492188 17.523438 26.300781 17.523438 C 26.109375 17.523438 26.027344 17.542969 26.125 17.570312 M 27.824219 17.570312 C 27.921875 17.59375 28.078125 17.59375 28.175781 17.570312 C 28.269531 17.542969 28.191406 17.523438 28 17.523438 C 27.808594 17.523438 27.730469 17.542969 27.824219 17.570312 M 33.550781 20.199219 C 33.933594 20.585938 34.265625 20.898438 34.292969 20.898438 C 34.320312 20.898438 34.03125 20.585938 33.648438 20.199219 C 33.269531 19.816406 32.933594 19.5 32.90625 19.5 C 32.878906 19.5 33.167969 19.816406 33.550781 20.199219 M 28.507812 22.335938 C 28.609375 22.429688 29.199219 22.699219 29.199219 22.65625 C 29.199219 22.597656 28.644531 22.300781 28.539062 22.300781 C 28.5 22.300781 28.484375 22.316406 28.507812 22.335938 M 23.199219 23.449219 C 22.957031 23.699219 22.78125 23.898438 22.808594 23.898438 C 22.835938 23.898438 23.058594 23.699219 23.300781 23.449219 C 23.542969 23.203125 23.71875 23 23.691406 23 C 23.664062 23 23.441406 23.203125 23.199219 23.449219 M 18.375 25.574219 C 19.046875 25.59375 20.152344 25.59375 20.824219 25.574219 C 21.5 25.558594 20.949219 25.542969 19.601562 25.542969 C 18.253906 25.542969 17.703125 25.558594 18.375 25.574219 M 36.328125 26.300781 C 36.328125 26.546875 36.347656 26.648438 36.371094 26.523438 C 36.394531 26.402344 36.394531 26.199219 36.371094 26.074219 C 36.347656 25.953125 36.328125 26.050781 36.328125 26.300781 M 31.722656 27.199219 C 31.722656 27.390625 31.742188 27.472656 31.769531 27.375 C 31.792969 27.277344 31.792969 27.121094 31.769531 27.023438 C 31.742188 26.929688 31.722656 27.007812 31.722656 27.199219 M 36.324219 28.199219 C 36.324219 28.390625 36.34375 28.472656 36.367188 28.375 C 36.394531 28.277344 36.394531 28.121094 36.367188 28.023438 C 36.34375 27.929688 36.324219 28.007812 36.324219 28.199219 M 17.046875 32.300781 C 17.046875 34.199219 17.058594 34.972656 17.074219 34.023438 C 17.089844 33.078125 17.089844 31.523438 17.074219 30.574219 C 17.058594 29.625 17.046875 30.402344 17.046875 32.300781 M 22.101562 29.238281 C 22.101562 29.34375 22.398438 29.898438 22.457031 29.898438 C 22.484375 29.898438 22.429688 29.753906 22.339844 29.574219 C 22.152344 29.210938 22.101562 29.132812 22.101562 29.238281 M 31.070312 29.652344 C 30.976562 29.84375 30.925781 30 30.949219 30 C 31.015625 30 31.320312 29.386719 31.273438 29.34375 C 31.253906 29.320312 31.160156 29.460938 31.070312 29.652344 M 30.308594 30.726562 C 29.9375 31.148438 29.886719 31.238281 30.140625 31 C 30.476562 30.6875 30.964844 30.097656 30.882812 30.101562 C 30.863281 30.105469 30.605469 30.386719 30.308594 30.726562 M 23.199219 30.851562 C 23.5 31.152344 23.765625 31.398438 23.792969 31.398438 C 23.820312 31.398438 23.597656 31.152344 23.300781 30.851562 C 23 30.546875 22.734375 30.300781 22.707031 30.300781 C 22.679688 30.300781 22.902344 30.546875 23.199219 30.851562 M 35.269531 31.75 C 35.179688 31.941406 35.125 32.101562 35.148438 32.101562 C 35.21875 32.101562 35.519531 31.488281 35.476562 31.441406 C 35.453125 31.421875 35.359375 31.558594 35.269531 31.75 M 26.425781 32.371094 C 26.578125 32.394531 26.824219 32.394531 26.976562 32.371094 C 27.125 32.347656 27.003906 32.328125 26.699219 32.328125 C 26.398438 32.328125 26.273438 32.347656 26.425781 32.371094 M 21.050781 34.398438 C 21.265625 34.621094 21.464844 34.800781 21.492188 34.800781 C 21.519531 34.800781 21.363281 34.621094 21.148438 34.398438 C 20.933594 34.179688 20.738281 34 20.710938 34 C 20.683594 34 20.835938 34.179688 21.050781 34.398438 M 19.96875 35.652344 C 19.878906 35.84375 19.824219 36 19.847656 36 C 19.917969 36 20.222656 35.386719 20.175781 35.34375 C 20.152344 35.320312 20.0625 35.460938 19.96875 35.652344 M 22.699219 35.648438 C 22.699219 35.714844 23.710938 36.222656 23.757812 36.175781 C 23.777344 36.15625 23.546875 36.019531 23.246094 35.871094 C 22.945312 35.722656 22.699219 35.625 22.699219 35.648438 M 18.949219 36.652344 C 18.785156 36.730469 18.71875 36.792969 18.804688 36.796875 C 18.890625 36.796875 19.050781 36.734375 19.15625 36.652344 C 19.394531 36.472656 19.34375 36.472656 18.949219 36.652344 M 26.976562 36.871094 C 27.101562 36.894531 27.28125 36.894531 27.375 36.867188 C 27.472656 36.84375 27.371094 36.824219 27.148438 36.824219 C 26.929688 36.828125 26.851562 36.847656 26.976562 36.871094 "/>
<path style=" stroke:none;fill-rule:evenodd;fill:rgb(92.156863%,20%,63.921571%);fill-opacity:1;" d="M 18.449219 11.589844 C 17.996094 11.796875 17.558594 12.203125 17.316406 12.648438 C 17.167969 12.917969 17.148438 13.605469 17.121094 19.25 L 17.09375 25.550781 L 19.523438 25.519531 L 21.949219 25.488281 L 22.230469 24.859375 C 23.375 22.308594 26.703125 21.199219 29.101562 22.574219 C 31.035156 23.683594 32.046875 25.855469 31.660156 28.066406 C 31.285156 30.234375 29.773438 31.820312 27.660156 32.265625 C 25.550781 32.714844 23.265625 31.5625 22.234375 29.535156 L 21.9375 28.949219 L 17.09375 28.894531 L 17.121094 32.546875 L 17.148438 36.195312 L 17.410156 36.457031 C 17.871094 36.917969 18.8125 36.882812 19.445312 36.382812 C 19.761719 36.136719 20.148438 35.398438 20.308594 34.738281 C 20.535156 33.816406 20.527344 33.816406 21.300781 34.523438 C 23.484375 36.515625 26.539062 37.257812 29.449219 36.503906 C 34.554688 35.179688 37.503906 29.617188 35.949219 24.253906 C 34.890625 20.609375 31.8125 17.996094 28.109375 17.589844 C 26.054688 17.367188 24.148438 17.859375 22.421875 19.0625 C 22.074219 19.304688 21.773438 19.5 21.75 19.5 C 21.730469 19.5 21.699219 18.046875 21.679688 16.273438 C 21.652344 13.171875 21.640625 13.035156 21.429688 12.636719 C 21.179688 12.171875 20.703125 11.734375 20.226562 11.535156 C 19.773438 11.34375 18.925781 11.371094 18.449219 11.589844 M 34.320312 16.394531 C 33.410156 17.304688 34.265625 18.742188 35.511719 18.398438 C 36.234375 18.199219 36.601562 17.378906 36.261719 16.722656 C 36.023438 16.265625 35.726562 16.101562 35.136719 16.101562 C 34.691406 16.101562 34.570312 16.144531 34.320312 16.394531 "/>
</g>
</svg>
